<svg width="387" height="53" viewBox="0 0 387 53" fill="none" xmlns="http://www.w3.org/2000/svg">
<g clip-path="url(#clip0_47_40)">
<path d="M82.4388 43.2331C79.0685 43.2331 76.1302 42.6817 73.6238 41.5789C71.2364 40.5949 69.1802 38.9491 67.6976 36.8357C66.215 34.7223 65.3678 32.2292 65.2559 29.6505H73.6238C73.7549 31.0017 74.2276 32.2974 74.9975 33.4157C75.744 34.4386 76.7668 35.2275 77.9459 35.69C79.1815 36.192 80.6791 36.443 82.4388 36.443C84.7593 36.443 86.6596 35.9845 88.1396 35.0674C88.8404 34.6636 89.4174 34.0759 89.8082 33.3681C90.1991 32.6602 90.3889 31.859 90.3572 31.0512C90.3746 30.5962 90.299 30.1425 90.1349 29.7178C89.9708 29.2931 89.7217 28.9063 89.4029 28.5811C88.765 27.9461 87.8031 27.4289 86.5123 27.0374C85.2214 26.6458 83.3178 26.1864 80.8114 25.6618C77.7023 24.9924 75.1373 24.2251 73.1165 23.36C71.0957 22.4948 69.5143 21.2974 68.3725 19.7679C67.229 18.235 66.6581 16.2703 66.6597 13.874C66.6597 11.3638 67.3144 9.21256 68.6236 7.42029C69.9329 5.62802 71.7587 4.26164 74.101 3.32116C76.4449 2.38737 79.1304 1.91965 82.1575 1.91797C85.1846 1.9163 87.824 2.43088 90.0759 3.46173C92.19 4.38054 94.0078 5.86725 95.3272 7.75665C96.6015 9.64464 97.3662 11.8296 97.5473 14.0999H89.4029C89.1417 12.3026 88.3648 10.927 87.0723 9.97314C85.7798 9.01927 84.0854 8.54401 81.9893 8.54736C79.8127 8.54736 78.0815 8.97744 76.7957 9.8376C75.5099 10.6978 74.8636 11.8391 74.8569 13.2615C74.837 13.6828 74.9097 14.1034 75.0698 14.4937C75.2299 14.884 75.4735 15.2345 75.7836 15.5207C76.4014 16.0813 77.3222 16.5582 78.5461 16.9514C79.77 17.3447 81.5205 17.784 83.7974 18.2693C87.1309 18.9387 89.8357 19.7252 91.9117 20.6289C93.8566 21.4235 95.5535 22.7235 96.8265 24.3941C98.0253 26.004 98.6247 28.0958 98.6247 30.6696C98.6247 33.2149 97.9316 35.4323 96.5453 37.3216C95.159 39.2109 93.2461 40.6643 90.8067 41.6818C88.3724 42.716 85.583 43.2331 82.4388 43.2331Z" fill="white"/>
<path d="M102.362 6.1875H109.831V13.7181H115.607V19.7249H109.831V34.2062C109.831 35.1048 110.111 35.76 110.672 36.1716C111.233 36.5833 112.038 36.7892 113.088 36.7892C113.686 36.7892 114.509 36.7314 115.559 36.621V42.4572C114.153 42.861 112.698 43.0688 111.235 43.0746C108.09 43.0746 105.825 42.345 104.439 40.8858C103.052 39.4265 102.36 37.3347 102.362 34.6103V6.1875Z" fill="white"/>
<path d="M125.047 52.9999L129.54 42.0555L117.859 13.708H125.441L133.304 33.6916L141.11 13.708H148.692L132.619 52.9999H125.047Z" fill="white"/>
<path d="M151.183 42.3365V2.82373H158.539V42.3365H151.183Z" fill="white"/>
<path d="M176.759 43.233C173.762 43.233 171.15 42.5879 168.923 41.2976C166.721 40.0263 164.924 38.1578 163.74 35.9083C162.504 33.6073 161.886 30.9975 161.886 28.079C161.843 25.3749 162.446 22.6996 163.644 20.2748C164.788 17.9964 166.565 16.0963 168.763 14.8027C170.991 13.4756 173.603 12.8112 176.598 12.8096C179.481 12.8096 181.942 13.4363 183.982 14.6897C186.042 15.9651 187.667 17.8345 188.643 20.0515C189.711 22.3709 190.245 25.0835 190.245 28.1895C190.245 28.827 190.226 29.3701 190.187 29.8186H169.064C169.29 32.3288 170.077 34.1997 171.425 35.4313C172.772 36.663 174.569 37.2805 176.814 37.2838C178.386 37.2838 179.697 36.9492 180.747 36.2798C181.786 35.6186 182.575 34.6315 182.992 33.4734H189.956C189.245 36.6948 187.691 39.1272 185.295 40.7705C182.899 42.4138 180.054 43.2347 176.759 43.233ZM183.037 24.9338C182.852 22.9139 182.187 21.3894 181.043 20.3602C179.9 19.331 178.412 18.8164 176.581 18.8164C174.669 18.8164 173.078 19.331 171.809 20.3602C170.54 21.3894 169.7 22.9139 169.29 24.9338H183.037Z" fill="white"/>
<path d="M194.856 42.3367V2.81885H209.907C213.985 2.81885 217.476 3.63298 220.379 5.26125C223.231 6.83708 225.533 9.24538 226.979 12.1643C228.476 15.138 229.224 18.628 229.224 22.6342C229.224 26.6405 228.476 30.1204 226.979 33.0741C225.532 35.9783 223.228 38.3691 220.379 39.9244C217.479 41.5342 213.989 42.3392 209.907 42.3392L194.856 42.3367ZM209.794 35.5993C213.464 35.5993 216.318 34.4672 218.358 32.203C220.397 29.9389 221.417 26.7493 221.419 22.6342C221.419 18.5175 220.398 15.3087 218.358 13.0077C216.317 10.7067 213.462 9.55451 209.794 9.55116H202.438V35.5993H209.794Z" fill="white"/>
<path d="M246.186 43.233C243.3 43.233 240.726 42.5971 238.464 41.3253C236.219 40.0723 234.37 38.2157 233.127 35.966C231.836 33.6633 231.191 31.0343 231.191 28.079C231.191 25.1237 231.827 22.4947 233.1 20.192C234.339 17.9247 236.187 16.0485 238.436 14.775C240.72 13.4647 243.322 12.8096 246.242 12.8096C249.162 12.8096 251.745 13.4555 253.992 14.7474C256.22 16.0201 258.041 17.8985 259.243 20.1644C260.521 22.5837 261.168 25.2859 261.124 28.0213C261.124 30.9783 260.497 33.6073 259.243 35.9083C258.03 38.1665 256.201 40.035 253.969 41.2976C251.699 42.5879 249.105 43.233 246.186 43.233ZM246.186 36.9575C247.564 36.9903 248.92 36.6194 250.089 35.8907C251.225 35.1413 252.106 34.0645 252.616 32.8032C253.777 29.7296 253.777 26.3381 252.616 23.2645C252.106 22.0031 251.225 20.9264 250.089 20.177C248.92 19.4482 247.564 19.0774 246.186 19.1101C244.804 19.0765 243.444 19.4578 242.281 20.2046C241.145 20.9722 240.257 22.0549 239.727 23.3197C239.102 24.8067 238.796 26.4086 238.831 28.0213C238.831 29.8621 239.13 31.4435 239.73 32.7655C240.261 34.0308 241.161 35.1067 242.314 35.8527C243.466 36.5987 244.816 36.9802 246.189 36.9475L246.186 36.9575Z" fill="white"/>
<path d="M274.545 43.2328C271.213 43.2328 268.601 42.1567 266.709 40.0047C264.817 37.8526 263.872 34.9057 263.874 31.1638V13.708H271.343V30.6593C271.343 32.7176 271.811 34.2798 272.747 35.3458C273.683 36.4118 275.087 36.9456 276.958 36.9473C278.082 36.9687 279.187 36.6559 280.133 36.0486C281.078 35.4165 281.827 34.5321 282.295 33.4958C282.844 32.2693 283.113 30.9358 283.081 29.5925V13.708H290.55V42.3366H283.081V39.2491C282.125 40.5061 280.883 41.5165 279.457 42.1961C277.919 42.9077 276.24 43.2621 274.545 43.2328Z" fill="white"/>
<path d="M311.947 43.2326C310.225 43.248 308.52 42.8945 306.947 42.1959C305.411 41.5004 304.049 40.4713 302.961 39.1837V42.329H295.603V2.82373H302.959V16.8506C304.065 15.5924 305.423 14.5792 306.944 13.8761C308.513 13.158 310.22 12.7938 311.945 12.8092C314.408 12.7648 316.83 13.4486 318.906 14.7747C320.953 16.1135 322.595 17.9868 323.653 20.1917C324.796 22.4927 325.367 25.1217 325.365 28.0787C325.365 30.9955 324.795 33.6053 323.653 35.9079C322.599 38.1082 320.956 39.9737 318.906 41.2973C316.824 42.6045 314.406 43.277 311.947 43.2326V43.2326ZM310.372 36.8894C311.744 36.9391 313.099 36.5714 314.257 35.835C315.415 35.0986 316.323 34.0281 316.859 32.7652C317.507 31.2895 317.824 29.6898 317.786 28.0787C317.786 25.3108 317.112 23.1353 315.764 21.5522C314.417 19.9691 312.619 19.1734 310.372 19.165C308.09 19.165 306.285 19.9607 304.955 21.5522C303.626 23.1437 302.961 25.3191 302.961 28.0787C302.924 29.6898 303.24 31.2895 303.888 32.7652C304.423 34.0288 305.33 35.0999 306.488 35.8365C307.646 36.5731 309.001 36.9403 310.372 36.8894V36.8894Z" fill="white"/>
<path d="M328.176 42.3365V2.82373H335.532V42.3365H328.176Z" fill="white"/>
<path d="M353.222 43.233C350.225 43.233 347.614 42.5879 345.389 41.2976C343.182 40.0279 341.38 38.1593 340.193 35.9083C338.957 33.6073 338.339 30.9975 338.339 28.079C338.295 25.3748 338.898 22.6991 340.097 20.2748C341.238 17.9969 343.013 16.0967 345.208 14.8027C347.433 13.4756 350.044 12.8112 353.041 12.8096C355.924 12.8096 358.386 13.4363 360.427 14.6897C362.486 15.9665 364.111 17.8355 365.088 20.0515C366.156 22.3709 366.689 25.0835 366.688 28.1895C366.688 28.827 366.668 29.3692 366.633 29.8186H345.517C345.741 32.3288 346.527 34.1997 347.875 35.4313C349.223 36.663 351.02 37.2805 353.267 37.2838C354.839 37.2838 356.149 36.9492 357.197 36.2798C358.236 35.6186 359.026 34.6315 359.442 33.4734H366.409C365.699 36.6948 364.145 39.1272 361.748 40.7705C359.35 42.4138 356.508 43.2347 353.222 43.233ZM359.5 24.9338C359.313 22.9139 358.648 21.3894 357.506 20.3602C356.364 19.331 354.876 18.8164 353.041 18.8164C351.132 18.8164 349.542 19.331 348.269 20.3602C346.997 21.3894 346.155 22.9139 345.743 24.9338H359.5Z" fill="white"/>
<path d="M370.264 42.3369V13.7082H377.733V18.1989C378.4 16.7622 379.441 15.531 380.747 14.6345C382.001 13.7978 383.508 13.3794 385.267 13.3794C385.604 13.3794 385.913 13.3794 386.194 13.407C386.469 13.4257 386.742 13.4728 387.008 13.5476V20.5761C386.416 20.4582 385.813 20.4019 385.209 20.4079C383.003 20.4079 381.206 21.1467 379.82 22.6244C378.434 24.1021 377.741 26.0952 377.741 28.6037V42.3569L370.264 42.3369Z" fill="white"/>
<path d="M9.28954 34.48C8.89883 34.4538 8.51764 34.3479 8.1695 34.1687C7.82135 33.9895 7.51364 33.7409 7.26536 33.4383L0.5926 27.2959C0.356618 26.9954 0.185587 26.6492 0.0903221 26.2793C0.00691831 25.9106 -0.017661 25.531 0.0174926 25.1547C0.0844882 24.3091 0.438979 23.5119 1.02205 22.8955L23.7928 0.0126953L29.3555 5.61542L7.95097 27.2281H24.6869V34.47L9.28954 34.48Z" fill="white"/>
<path d="M44.4139 16.1176C44.802 16.1458 45.1803 16.2527 45.5257 16.4318C45.8711 16.6109 46.1764 16.8585 46.423 17.1594L53.0882 23.3018C53.3242 23.6023 53.4952 23.9485 53.5905 24.3184C53.676 24.6868 53.7014 25.0665 53.6658 25.443C53.5988 26.2886 53.2444 27.0858 52.6613 27.7021L29.888 50.6025L24.3353 44.9948L45.7424 23.3821H29.0065V16.1402L44.4139 16.1176Z" fill="white"/>
</g>
<defs>
<clipPath id="clip0_47_40">
<rect width="387" height="53" fill="white"/>
</clipPath>
</defs>
</svg>
