<?xml version="1.0" encoding="UTF-8"?>
<svg id="Layer_1" xmlns="http://www.w3.org/2000/svg" version="1.1" viewBox="0 0 1369 286">
  <!-- Generator: Adobe Illustrator 29.3.1, SVG Export Plug-In . SVG Version: 2.1.0 Build 151)  -->
  <defs>
    <style>
      .st0 {
        fill: #fff;
      }

      .st1 {
        fill: #221f20;
      }
    </style>
  </defs>
  <path class="st0" d="M775,101h-67.5c-6.2-24.8-27.2-40.9-53-42.5-44.9-2.8-71.9,24.7-78.2,66.7-8.4,56.6,18.6,109.8,83.8,102,27.8-3.3,47.3-19.7,52.1-47.2h-63.2v-50h128.8v30.6c0,1.1-.5,2.1-.5,3.2-3.1,66.7-39.9,112.6-109.1,120.4-78,8.8-145.9-29.4-161.2-107.5-11.8-60,7.3-126.9,63.7-158.1,42-23.3,106.8-24.5,148.6-.1,31,18.1,48.7,48.1,55.7,82.5Z"/>
  <path class="st0" d="M213.1,281L314.6,5.7l86-.5,101.5,275.8h-73.9l-19-53.8h-103.8c0,0-18.4,53.8-18.4,53.8h-73.9,0ZM321.5,176.7h72.3l-35.9-109.8-1.2.3c-9.9,37.1-23.6,73-35.1,109.6Z"/>
  <path class="st0" d="M1021.3,5.2v56.5h-133.1v54.2h115.6v50h-115.6v58.4h133.1v56.5h-202.1V5.2h202.1Z"/>
  <path class="st0" d="M68.5,184.3v97.7H0V6.2h133.4c61.7,1.1,105.8,35.1,99.6,99.3-5.4,56.7-53.9,79-106.7,78.8h-57.8ZM68.5,131.5h57.8c22.4-1.4,38.7-13.4,38.8-36.7.1-22.9-14.7-34.3-36.9-35.8h-59.7v72.5Z"/>
  <rect class="st0" x="1090" y="1" width="278.8" height="278.8" rx="72" ry="72"/>
  <path class="st1" d="M1216.9,225v-124.9l-37.9,25.2v-40.5l42.7-28.8h35v169h-39.8Z"/>
</svg>